<svg height='300px' width='300px'  fill="#000000" xmlns="http://www.w3.org/2000/svg" xmlns:xlink="http://www.w3.org/1999/xlink" version="1.1" x="0px" y="0px" viewBox="0 0 100 100" enable-background="new 0 0 100 100" xml:space="preserve"><g><path fill="none" stroke="#000000" stroke-width="0.5" stroke-linecap="round" stroke-linejoin="round" stroke-miterlimit="10" d="   M82.491,71.714L45.318,37.5V11.833L18,10.333c-0.21,0.496-1.564,1.924-1.353,2.724c0.252,0.952,1.533,0.648,1.901,1.26   c0.434,0.723-0.312,3.661-0.536,4.507c-0.425,1.604-1.398,2.908-1.679,4.51c-0.473,2.694,0.483,2.479,2.296,4.166   c3.053,2.841,0.605,5.785,1.375,9.123c0.626,2.717,3.354,4.123,4.356,6.841c0.772,2.092,1.835,2.627,3.483,4.161   c-0.04-0.93-0.872-3.672,0.692-3.431c1.55,0.239,0.952,2.527,1.251,3.484c0.249,0.795,2.019,2.389,0.549,3.124   c-0.488,0.244-1.877-0.721-2.438-0.982c0.395,1.231,0.143,2.506,0.768,3.682c0.745,1.402,1.549,0.862,2.541,1.626   c1.019,0.784,0.911,1.686,0.458,2.874c-0.471,1.237-0.962,1.045-0.212,2.539c0.543,1.08,1.466,2.444,2.259,3.266   c0.461,0.478,0.96,0.585,1.421,1.196c0.384,0.509,0.235,1.172,0.691,1.63c0.782,0.785,2.104,0.796,2.724,1.825   c0.689,1.143-0.093,2.008,1.93,1.903c0.104,2.29,0.539,4.363,0.515,6.653c1.127,0.45,2.952-0.086,4.137-0.324   c1.175,1.587,2.694,0.484,4.041,1.346c0.587,0.375,0.464,1.313,0.82,1.642c0.729,0.672,1.271,0.25,2.176,0.484   c0.67,0.173,1.19,0.665,1.833,0.845c0.604,0.168,1.601-0.226,2.049,0.309c0.539,0.642-0.364,1.812,0.448,2.329   c0.675,0.43,1.646-0.595,2.299-0.445c0.766,0.176,2.961,2.178,3.5,2.84c0.612,0.752,1.231,2.159,1.579,3.129   c0.542,1.514,0.467,2.259,1.588,3.367c0.714,0.706,0.037,0.758,1.2,0.966c0.762,0.137,1.771-0.415,2.54-0.499   c1.602-0.176,3.22,0.129,4.796-0.171c1.47-0.28,2.87-0.743,4.38-0.958c1.306-0.186,3.6-0.044,4.759-0.663   c1.252-0.669,1.367-2.178-0.445-1.899c-0.143-0.965,0.501-2.296-0.218-2.966c1.001-1.367,1.363-2.333,1.521-4.005   c0.069-0.733,0.101-1.548,0.463-2.166c0.356-0.61,1.356-0.971,1.549-1.497c0.299-0.812-0.178-1.175-0.546-1.628   c-0.236-0.292-0.902-0.153-1.095-0.409c-0.357-0.473-0.005-0.96-0.2-1.438C83.603,73.819,82.921,73.277,82.491,71.714   c0.01,0.26,0.023,0.526,0.009,0.786"></path></g></svg>