<svg xmlns="http://www.w3.org/2000/svg" width="38" height="36" viewBox="0 0 38 36">
  <path fill="#AD9B36" d="M18.6206897,0 C28.9068495,0 37.2413794,6.9094145 37.2413794,15.4326903 C37.2413794,20.3732328 34.3335089,24.4061092 29.9747688,27.2307704 L33.6080741,36 L23.6164845,30.4615392 C22.2582187,30.7227238 20.0749656,30.8509853 18.6206897,30.8509853 C8.3345299,30.8509853 0,23.9559708 0,15.4326903 C0,6.9094145 8.3345299,0 18.6206897,0 L18.6206897,0 Z M28.6122793,11.9999985 C26.8564845,11.9999985 25.4331371,13.4464598 25.4331371,15.2307673 C25.4331371,17.0150794 26.8564845,18.4615407 28.6122793,18.4615407 C30.3680741,18.4615407 31.7914214,17.0150794 31.7914214,15.2307673 C31.7914214,13.4464598 30.3680741,11.9999985 28.6122793,11.9999985 Z M18.6206897,11.9999985 C16.8648949,11.9999985 15.4415476,13.4464598 15.4415476,15.2307673 C15.4415476,17.0150794 16.8648949,18.4615407 18.6206897,18.4615407 C20.3764845,18.4615407 21.7998318,17.0150794 21.7998318,15.2307673 C21.7998318,13.4464598 20.3764845,11.9999985 18.6206897,11.9999985 Z M8.62910013,11.9999985 C6.87330534,11.9999985 5.44995799,13.4464598 5.44995799,15.2307673 C5.44995799,17.0150794 6.87330534,18.4615407 8.62910013,18.4615407 C10.3848949,18.4615407 11.8082423,17.0150794 11.8082423,15.2307673 C11.8082423,13.4464598 10.3848949,11.9999985 8.62910013,11.9999985 Z"/>
</svg>
