<svg xmlns="http://www.w3.org/2000/svg" width="48" height="48" viewBox="0 0 48 48">
  <path fill-rule="evenodd" d="M25.8597552,0.000968902378 C29.2416854,0.00498363413 30.6996619,0.0222946612 32.0508733,0.0679271851 L32.3202305,0.0774357617 C32.8134165,0.0955767792 33.3085358,0.117660135 33.8951693,0.144426516 C36.4496895,0.260939463 38.1943351,0.666686514 39.720912,1.26001655 C41.2991241,1.87325763 42.6375464,2.69389748 43.9718721,4.02812792 C45.3061025,5.36245363 46.1267424,6.70087587 46.7400787,8.27908805 C47.3333135,9.80566488 47.7390605,11.5503105 47.8555735,14.1048307 C47.8823399,14.6914642 47.9044232,15.1865835 47.9225642,15.6797706 L47.9320728,15.9491286 C47.9777053,17.3003444 47.9950164,18.7583353 47.9990311,22.1403133 L47.9999635,23.6000247 L47.9999635,23.6000247 L48,24.0000476 C48,24.1358385 47.999988,24.2691551 47.9999635,24.4000648 L47.9990311,25.8597552 C47.9950164,29.2416854 47.9777053,30.6996619 47.9320728,32.0508733 L47.9225642,32.3202305 C47.9044232,32.8134165 47.8823399,33.3085358 47.8555735,33.8951693 C47.7390605,36.4496895 47.3333135,38.1943351 46.7400787,39.720912 C46.1267424,41.2991241 45.3061025,42.6375464 43.9718721,43.9718721 C42.6375464,45.3061025 41.2991241,46.1267424 39.720912,46.7400787 C38.1943351,47.3333135 36.4496895,47.7390605 33.8951693,47.8555735 C33.3085358,47.8823399 32.8134165,47.9044232 32.3202305,47.9225642 L32.0508733,47.9320728 C30.6996619,47.9777053 29.2416854,47.9950164 25.8597552,47.9990311 L24.4000648,47.9999635 L24.4000648,47.9999635 L24.0000476,48 C23.8642548,48 23.7309362,47.999988 23.6000247,47.9999635 L22.1403133,47.9990311 C18.7583353,47.9950164 17.3003444,47.9777053 15.9491286,47.9320728 L15.6797706,47.9225642 C15.1865835,47.9044232 14.6914642,47.8823399 14.1048307,47.8555735 C11.5503105,47.7390605 9.80566488,47.3333135 8.27908805,46.7400787 C6.70087587,46.1267424 5.36245363,45.3061025 4.02812792,43.9718721 C2.69389748,42.6375464 1.87325763,41.2991241 1.26001655,39.720912 C0.666686514,38.1943351 0.260939463,36.4496895 0.144426516,33.8951693 C0.117660135,33.3085358 0.0955767792,32.8134165 0.0774357617,32.3202305 L0.0679271851,32.0508733 C0.0222946612,30.6996619 0.00498363413,29.2416854 0.000968902378,25.8597552 L0.000968902378,22.1403133 C0.00498363413,18.7583353 0.0222946612,17.3003444 0.0679271851,15.9491286 L0.0774357617,15.6797706 C0.0955767792,15.1865835 0.117660135,14.6914642 0.144426516,14.1048307 C0.260939463,11.5503105 0.666686514,9.80566488 1.26001655,8.27908805 C1.87325763,6.70087587 2.69389748,5.36245363 4.02812792,4.02812792 C5.36245363,2.69389748 6.70087587,1.87325763 8.27908805,1.26001655 C9.80566488,0.666686514 11.5503105,0.260939463 14.1048307,0.144426516 C14.6914642,0.117660135 15.1865835,0.0955767792 15.6797706,0.0774357617 L15.9491286,0.0679271851 C17.3003444,0.0222946612 18.7583353,0.00498363413 22.1403133,0.000968902378 Z M25.51801,4.32488961 L22.4820629,4.32488961 C18.9711123,4.32785713 17.5044744,4.34310574 16.1523063,4.38792856 L15.8828272,4.39729257 C15.8379777,4.39892067 15.7931126,4.40058291 15.7481601,4.40227993 L15.476827,4.41288455 C15.1121288,4.42759422 14.7326985,4.4446119 14.3019405,4.46426551 C11.9619642,4.57096584 10.6911823,4.96194633 9.84548697,5.29062145 C8.72522879,5.72599689 7.92573848,6.24606572 7.08594973,7.08594973 C6.24606572,7.92573848 5.72599689,8.72522879 5.29062145,9.84548697 C4.96194633,10.6911823 4.57096584,11.9619642 4.46426551,14.3019405 C4.4446119,14.7326985 4.42759422,15.1121288 4.41288455,15.476827 L4.40227993,15.7481601 C4.40058291,15.7931126 4.39892067,15.8379777 4.39729257,15.8828272 L4.38792856,16.1523063 C4.34310574,17.5044744 4.32785713,18.9711123 4.32488961,22.4820629 L4.32488961,25.51801 C4.32785713,29.0289097 4.34310574,30.4955323 4.38792856,31.8476957 L4.39729257,32.1171741 C4.39892067,32.1620234 4.40058291,32.2068885 4.40227993,32.2518408 L4.41288455,32.5231735 C4.42759422,32.8878712 4.4446119,33.2673015 4.46426551,33.6980595 C4.57096584,36.0380358 4.96194633,37.3088177 5.29062145,38.154513 C5.72599689,39.2747712 6.24616099,40.0742615 7.08594973,40.9140503 C7.92573848,41.7539343 8.72522879,42.2740031 9.84548697,42.7093786 C10.6911823,43.0380537 11.9619642,43.4290342 14.3019405,43.5357345 C14.7864885,43.5578448 15.2060784,43.576619 15.61282,43.592524 L16.1521031,43.6120714 C17.5041503,43.6568943 18.9707706,43.6721429 22.4819555,43.6751104 L25.5181194,43.6751104 C29.0292624,43.6721429 30.4959052,43.6568943 31.8479403,43.6120714 L32.3872164,43.592524 C32.7939511,43.576619 33.2135297,43.5578448 33.6980595,43.5357345 C36.0380358,43.4290342 37.3088177,43.0380537 38.154513,42.7093786 C39.2747712,42.2740031 40.0742615,41.7539343 40.9140503,40.9140503 C41.7539343,40.0742615 42.2740031,39.2747712 42.7093786,38.154513 C43.0380537,37.3088177 43.4290342,36.0380358 43.5357345,33.6980595 C43.5553881,33.2673015 43.5724058,32.8878712 43.5871154,32.5231735 L43.5977201,32.2518408 C43.5994171,32.2068885 43.6010793,32.1620234 43.6027074,32.1171741 L43.6120714,31.8476957 C43.6568943,30.4955323 43.6721429,29.0289097 43.6751104,25.51801 L43.6751104,22.4820629 C43.6721429,18.9711123 43.6568943,17.5044744 43.6120714,16.1523063 L43.6027074,15.8828272 C43.6010793,15.8379777 43.5994171,15.7931126 43.5977201,15.7481601 L43.5871154,15.476827 C43.5724058,15.1121288 43.5553881,14.7326985 43.5357345,14.3019405 C43.4290342,11.9619642 43.0380537,10.6911823 42.7093786,9.84548697 C42.2740031,8.72522879 41.7539343,7.92573848 40.9140503,7.08594973 C40.0742615,6.24606572 39.2747712,5.72599689 38.154513,5.29062145 C37.3088177,4.96194633 36.0380358,4.57096584 33.6980595,4.46426551 C33.2673015,4.4446119 32.8878712,4.42759422 32.5231735,4.41288455 L32.2518408,4.40227993 C32.2068885,4.40058291 32.1620234,4.39892067 32.1171741,4.39729257 L31.8476957,4.38792856 C30.4955323,4.34310574 29.0289097,4.32785713 25.51801,4.32488961 Z M24.0000476,11.6756834 C30.8065759,11.6756834 36.3243166,17.1934241 36.3243166,24.0000476 C36.3243166,30.8065759 30.8065759,36.3243166 24.0000476,36.3243166 C17.1934241,36.3243166 11.6756834,30.8065759 11.6756834,24.0000476 C11.6756834,17.1934241 17.1934241,11.6756834 24.0000476,11.6756834 Z M24.0000476,16 C19.5817014,16 16,19.5817014 16,24.0000476 C16,28.4182986 19.5817014,32 24.0000476,32 C28.4182986,32 32,28.4182986 32,24.0000476 C32,19.5817014 28.4182986,16 24.0000476,16 Z M36.8112321,8.30871644 C38.4018291,8.30871644 39.6912836,9.59817085 39.6912836,11.1887679 C39.6912836,12.7793649 38.4018291,14.0687241 36.8112321,14.0687241 C35.2207303,14.0687241 33.9312759,12.7793649 33.9312759,11.1887679 C33.9312759,9.59817085 35.2207303,8.30871644 36.8112321,8.30871644 Z"/>
</svg>
