<svg xmlns="http://www.w3.org/2000/svg" width="48" height="48" viewBox="0 0 48 48">
  <path d="M40.8,40.8 L33.6,40.8 L33.6,29.76 C33.6,27.12 33.6,23.76 30,23.76 C26.4,23.76 25.68,26.64 25.68,29.76 L25.68,40.8 L18.48,40.8 L18.48,18 L25.2,18 L25.2,21.12 C25.92,19.92 26.88,18.96 28.08,18.24 C29.28,17.52 30.72,17.28 31.92,17.28 C39.12,17.28 40.56,22.08 40.56,28.08 L40.8,40.8 Z M10.56,14.88 C9.84,14.88 8.88,14.64 8.16,14.16 C7.68,13.68 7.2,12.96 6.96,12.24 C6.72,11.52 6.48,10.56 6.72,9.84 C6.72,9.12 7.2,8.4 7.68,7.92 C8.4,7.2 9.12,6.96 9.84,6.72 C10.56,6.48 11.52,6.72 12.24,6.96 C12.96,7.2 13.68,7.68 14.16,8.4 C14.64,9.12 14.88,9.84 14.88,10.8 C14.88,11.28 14.88,11.76 14.64,12.48 C14.4,12.72 13.92,13.2 13.68,13.68 C13.2,13.92 12.72,14.4 12.24,14.64 C11.76,14.64 11.28,14.88 10.56,14.88 Z M14.16,40.8 L7.2,40.8 L7.2,18 L14.4,18 L14.4,40.8 L14.16,40.8 Z M44.4,0 L3.6,0 C2.64,0 1.68,0.24 1.2,0.96 C0.48,1.68 0,2.64 0,3.36 L0,44.4 C0,45.36 0.48,46.32 0.96,46.8 C1.68,47.52 2.4,47.76 3.36,47.76 L44.16,47.76 C45.12,47.76 46.08,47.52 46.56,46.8 C47.28,46.08 47.52,45.36 47.52,44.4 L47.52,3.36 C47.52,2.4 47.04,1.44 46.56,0.96 C46.32,0.24 45.36,0 44.4,0"/>
</svg>
