<svg xmlns="http://www.w3.org/2000/svg" width="60" height="36" viewBox="0 0 60 36">
  <path fill="#AD9B36" d="M3.7734375,0 L56.3203125,0 C57.4936875,0 58.30806,0.237900843 58.875,0.679652407 C49.7583,7.81120266 41.0463675,15.5571626 31.875,22.5703774 C30.5870925,23.2010547 29.4129075,23.2010547 28.125,22.5703774 C19.11213,15.3346368 10.1149425,7.99667832 1.125,0.70305249 C1.701585,0.24555087 2.539365,0 3.7734375,0 Z M59.7421875,1.89840672 C59.914815,2.37495841 60,2.9638605 60,3.67966303 L60,32.1797865 C60,33.18239 59.8141725,33.9394427 59.5078125,34.5001447 L40.03125,17.8828608 L59.7421875,1.89840672 Z M0.28125,1.92165681 L19.96875,17.8827108 L0.46875,34.4999947 C0.162765,33.9522677 0,33.2253652 0,32.2499867 L0,3.74986328 C0,3.01186067 0.1019925,2.41185854 0.28125,1.92165681 L0.28125,1.92165681 Z M21.1640625,18.8670893 C23.249145,20.5352452 25.3309875,22.2695514 27.421875,23.9062072 C29.1007575,24.7456101 30.8992425,24.7456101 32.578125,23.9062072 C34.6694175,22.2633263 36.7570425,20.5477703 38.8359375,18.8670893 L58.4296875,35.5546484 C57.8946075,35.8352244 57.1964175,36 56.2734375,36 L3.8203125,36 C2.8607625,36 2.1230775,35.8370994 1.5703125,35.5546484 L21.1640625,18.8670893 Z"/>
</svg>
