<svg xmlns="http://www.w3.org/2000/svg" width="48" height="48" viewBox="0 0 48 48">
  <path d="M48,48 L0,48 L0,0 L48,0 L48,48 Z M39.9157895,36.6315789 L39.9157895,36.1263158 L37.3894737,33.6 C37.1368421,33.3473684 37.1368421,33.0947368 37.1368421,32.8421053 L37.1368421,14.9052632 C37.1368421,14.6526316 37.1368421,14.4 37.3894737,14.1473684 L39.9157895,11.6210526 L39.9157895,11.3684211 L31.0736842,11.3684211 L24.7578947,27.0315789 L17.6842105,11.3684211 L8.33684211,11.3684211 L8.33684211,11.8736842 L11.3684211,15.4105263 C11.6210526,15.6631579 11.8736842,16.1684211 11.8736842,16.4210526 L11.8736842,30.5684211 C11.8736842,31.0736842 11.8736842,31.5789474 11.3684211,32.0842105 L8.08421053,36.1263158 L8.08421053,36.6315789 L17.6842105,36.6315789 L17.6842105,36.1263158 L14.4,32.0842105 C13.8947368,31.5789474 13.6421053,31.0736842 13.6421053,30.5684211 L13.6421053,18.4421053 L21.9789474,36.6315789 L22.9894737,36.6315789 L30.0631579,18.4421053 L30.0631579,33.0947368 C30.0631579,33.6 30.0631579,33.6 29.8105263,33.8526316 L27.2842105,36.3789474 L27.2842105,36.6315789 L39.9157895,36.6315789 Z"/>
</svg>
