<svg height='300px' width='300px'  fill="#000000" xmlns="http://www.w3.org/2000/svg" xmlns:xlink="http://www.w3.org/1999/xlink" version="1.1" x="0px" y="0px" viewBox="0 0 100 100" enable-background="new 0 0 100 100" xml:space="preserve"><g><g><path fill="none" stroke="#000000" stroke-width="0.75" stroke-linecap="round" stroke-linejoin="round" stroke-miterlimit="10" d="    M76.333,51.333c0.026,0.667-0.241,1.333-0.646,1.796c0.717,0.676-0.256,2.554-0.559,3.529c-0.549,1.768-0.644,3.045-0.466,4.84    c0.148,1.499,0.208,2.947,0,4.472c-0.19,1.398-0.81,2.921-0.639,4.337c2.15,0.467-2.124,2.973-0.841,4.525    c-1.055,1.359-2.515-0.714-3.521-1.296c-1.37-0.793-2.827-1.128-4.158-2.033c-1.441-0.98-8.435-4.231-6.479-6.163    c-0.418-0.82-1.381-1.976-1.988-2.675c-0.617-0.709-2.21-1.16-2.37-1.833l-44.667-1c0.276-1.217-0.277-1.76,0.499-2.829    c0.399-0.549,1.413-1.74,1.992-2.18c1.601-1.216,4.836-1.341,5.205-3.967c0.903-0.042,1.312-0.731,1.782-1.395    c-0.364-0.761-0.919-1.455-1.174-2.268c-1.202-0.12-1.312-3.703-0.479-4.369c0.215-0.172,1.754-0.355,2.174-0.538    c0.763-0.331,1.196-0.688,2-0.788c1.394-0.172,3.143-0.03,4.463,0.037c1.457,0.073,3.505,0.104,4.717,0.926    c0.351,0.238,0.951,1.254,1.309,1.341c1.136,0.278,1.159-0.803,2.012-0.982c0.574-0.121,1.801,0.12,2.513,0.045    c0.815-0.086,1.751,0.061,2.487-0.024c2.441-0.283,2.281-2.818,4.328-3.521c1.293-0.444,3.091,1.105,2.635-1.618    c-0.093-0.554-0.302-0.953-0.767-1.233c-0.034-1.147,1.45-1.131,1.682-2.12c0.365-1.558-1.454-0.943-2.086-2.017    c-1.101-1.871,0.78-1.84,1.708-2.53c0.431-0.321,0.676-0.991,1.042-1.262c0.474-0.352,0.59-0.276,1.125-0.542    c0.641-0.317,0.863,0.062,1.503-0.538C51.089,27.069,51,26.461,51.287,26c0.66-1.059,1.683-2.729,2.574-3.545    c1.643-1.502,3.846-2.633,5.685-3.763c4.571,1.221,10.255-0.001,14.903-0.525c-2.31,0.124,1.585,4.379-0.311,5.508    c2.642,2.412,0.32,5.238,0.194,7.821c-0.078,1.608,0.213,3.283,0.121,4.662c-0.03,0.458-0.638,1.644-0.424,2.008    c0.532,0.909,1.226,0.195,1.571-0.47c-0.057,0.068-0.127,0.114-0.211,0.138c0.73,0.329,0.738,1.108,1.086,1.652L76.333,51.333z"></path><path fill="none" stroke="#000000" stroke-width="0.75" stroke-linecap="round" stroke-linejoin="round" stroke-miterlimit="10" d="    M67.5,81.5c0.104,0.264,0.027-0.471,0.025-0.641c0.254-0.012,0.527-0.04,0.782-0.05c0.028,0.036,0.032-0.484,0-0.447    c-0.437-0.099-0.524-0.362-0.823-0.529c0.642-1.021,1.965-1.007,2.648-1.833c0.622-0.752,0.114-1.961,1.366-2.316    c0.474,1.59,1.232,0.975,2.034,0.492c1.18-0.711,0.867-1.229,2.467-1.013c1.691,0.229,1.536,0.623,3.184-0.329    c1.209-0.699,0.508-0.586,2.146-0.376c0.957,0.123,1.95,0.173,2.843-0.283c0.943-0.481,1.298-1.33,2.145-1.837    c1.364-0.817,1.357,0.01,2.63,0.337c1.141,0.292,2.36-0.316,3.528-0.15c-0.008,1.299-4.479,2.261-5.688,2.929    c-2.078,1.149-4.198,1.748-6.463,2.55c-2.35,0.832-4.529,1.51-6.958,2.041c-1.099,0.241-5.261,1.742-5.866,1.121"></path></g></g></svg>