<svg xmlns="http://www.w3.org/2000/svg" width="36" height="36" viewBox="0 0 36 36">
  <path fill="#AD9B36" fill-rule="evenodd" d="M2.23450302,2.88 L10.564228,11.2843844 L9.16034174,12.6851152 C8.69237966,13.1520254 8.59878725,13.8056998 8.87956449,14.4593741 C11.3129673,19.5020048 16.4605501,24.6380175 21.5145405,27.0659508 C22.1696874,27.439479 22.9184268,27.2527149 23.3863888,26.7858046 L24.7902751,25.3850739 L33.12,33.6960763 C21.4209481,44.528394 -8.34143988,14.27261 2.23450302,2.88 Z M28.972132,23.4509268 L34.7989294,29.2952195 C35.3538625,29.843122 35.4463513,30.6649756 34.9839071,31.3041951 L34.1515075,32.4 L34.1515075,32.4 L25.92,24.2727805 L26.7523996,23.4509268 C27.3073327,22.9030244 28.32471,22.9030244 28.972132,23.4509268 Z M6.19932203,0.476363529 L12.4474576,6.33773192 C13.1308475,6.88723521 13.1308475,7.8946579 12.4474576,8.53574507 L11.5688136,9.36 L2.88,1.20903458 C3.27050847,0.842699054 3.66101695,0.56794741 4.14915254,0.293195767 C4.73491525,-0.164723639 5.61355932,-0.0731397579 6.19932203,0.476363529 Z"/>
</svg>
