<svg height='300px' width='300px'  fill="#000000" xmlns="http://www.w3.org/2000/svg" xmlns:xlink="http://www.w3.org/1999/xlink" version="1.1" x="0px" y="0px" viewBox="0 0 100 100" enable-background="new 0 0 100 100" xml:space="preserve"><g><path fill="none" stroke="#000000" stroke-width="0.5" stroke-linecap="round" stroke-linejoin="round" stroke-miterlimit="10" d="   M49.5,21c-0.121,0.418-0.234,0.839-0.34,1.262c0.999,0.769,1.839,1.731,2.972,2.116c0.285,0.097,0.616-0.22,0.843-0.105   c0.238,0.121,0.22,0.546,0.465,0.728c0.951,0.706,1.461,0.717,2.592,0.962c1.536,0.333,3.383,0.632,4.774,1.288   c0.748,0.352,1.473,1.228,2.173,1.502c0.627,0.246,0.726-0.187,1.514-0.102c1.311,0.141,2.003,1.499,3.535,1.129   c0.64-0.154,1.12-0.813,1.723-0.943c0.844-0.181,1.271,0.318,2.002,0.634c0.582,0.251,0.788,0.526,1.491,0.375   c0.839-0.179,0.747-0.704,1.379-1.155c1.16-0.83,3.295,0.042,4.781-0.186c1.542-0.236,2.612-0.369,3.993,0.635   c1.516,1.101,1.722,2.167,3.707,1.879c0.632,1.11,0.032,2.585,0.144,3.833c0.149,1.681,0.661,2.923,1.104,4.498   c0.472,1.681,0.166,2.969,1.056,4.524c0.655,1.146,1.301,2.41,1.75,3.618c0.458,1.231,1.229,2.579,1.469,3.757   c0.269,1.318-0.18,2.785-0.65,3.991c-0.558,1.429-0.699,3.51-1.78,4.633c-0.889,0.923-2.979,2.055-4.304,1.863   c-0.047-0.924,0.257-1.718-0.641-1.988c-0.863-0.259-1.797,0.654-2.012,1.405c-0.488,1.708,1.738,1.9,1.108,3.467   c-0.918,2.282-4.642,3.868-6.834,4.387c-1.438,0.34-3.143,0.302-4.619,0.385c-0.156,1.475-1.503,1.705-2.14,2.579   c-0.536,0.736-0.482,2.021-1.12,2.645c-0.523,0.513-0.988,0.2-1.384,0.505c-0.745,0.576-0.674,1.473-0.872,2.481   c-0.188,0.959-1.228,1.778-1.265,2.399c-0.014,0.229,0.595,0.267,0.646,0.484c0.068,0.298-0.129,0.496-0.141,0.756   c-0.023,0.526-0.392,0.888-0.378,1.392c0.021,0.762,0.766,1.866,0.982,2.618c0.295,1.025,0.476,1.992,0.812,2.993   c0.388,1.154,0.778,1.328,1.703,2.115c-0.115,0.825-1.391,0.925-2.118,0.763c-1.008-0.224-1.813-1.388-2.862-1.63   c-0.764-0.177-1.326,0.367-2.004,0.384c-1.022,0.025-1.095-0.517-1.878-0.977c-2.174-1.278-4.001-1.655-5.372-4.021   c-0.83-1.432-1.067-3.021-2.003-4.383C53.136,79.968,53.021,79.5,52.75,79c-0.338-0.625-0.457-0.677-1.128-1.188   c-1.421-1.082-1.761-2.326-2.278-3.968c-0.512-1.623-1.547-2.954-2.125-4.566c-1.042-2.909-3.062-4.869-4.969-7.15   c-0.646-0.773-0.523-0.949-1.497-1.249c-0.751-0.231-1.592-0.14-2.359-0.247c-0.665-0.093-1.337-0.164-2.021-0.256   c-0.744-0.101-0.714-0.279-1.473-0.635c-2.738-1.283-3.805,2.142-4.678,4.006c-0.359,0.766-1.705,2.166-2.598,2.384   c-1.314,0.322-1.977-1.155-2.866-1.787c-2.415-1.715-5.146-2.955-5.88-5.969c-0.257-1.056-0.623-2.043-0.885-3.125   c-0.159-0.657,0.012-1.278-0.363-1.906c-0.378-0.632-1.239-1.049-1.759-1.591c-1.78-1.859-4.043-3.348-5.719-5.253   c-1.069-1.216-3.938-2.89-3.278-4.625L30,43c-0.266,0.277,0.892-34.818,0.875-34.75l19,0.375c0,0.042,0,0.083,0,0.125L49.5,21z"></path></g></svg>