<svg xmlns="http://www.w3.org/2000/svg" width="158" height="43" viewBox="0 0 158 43">
  <path fill="#02012D" d="M87.5815385,147 L104,104 L96.5641026,104 L87.5220513,128.944751 L78.2420513,104 L72.3528205,104 L62.894359,128.944751 L54.0902564,104 L46,104 L62.4184615,147 L75.0892308,115.819061 L87.5815385,147 Z M117,146 L117,104 L110,104 L110,146 L117,146 Z M141.5,147 L160,104 L152.611821,104 L141.736422,130.667127 L130.742812,104 L123,104 L141.5,147 Z M183,147 C186.005649,147 188.793785,146.455571 191.364407,145.366713 C193.935027,144.277854 196.159603,142.77325 198.038136,140.852901 C199.916664,138.93255 201.379942,136.665746 202.427966,134.052486 C203.47599,131.439227 204,128.588398 204,125.5 C204,122.411602 203.47599,119.560773 202.427966,116.947514 C201.379946,114.334254 199.916668,112.067448 198.038136,110.147099 C196.159603,108.226747 193.935027,106.722144 191.364407,105.633287 C188.793785,104.54443 186.005649,104 183,104 C179.954802,104 177.15678,104.54443 174.605932,105.633287 C172.055085,106.722148 169.840396,108.226751 167.961864,110.147099 C166.083333,112.067448 164.620056,114.334254 163.572034,116.947514 C162.524011,119.560773 162,122.411602 162,125.5 C162,128.588398 162.524011,131.439227 163.572034,134.052486 C164.620057,136.665746 166.083334,138.93255 167.961864,140.852901 C169.840396,142.773251 172.055085,144.277855 174.605932,145.366713 C177.15678,146.455571 179.954802,147 183,147 Z M183,140 C180.867815,140 178.936781,139.596775 177.206897,138.790323 C175.477012,137.98387 174.008621,136.905242 172.801724,135.554435 C171.594828,134.203629 170.659483,132.620968 169.99569,130.806452 C169.331897,128.991935 169,127.056452 169,125 C169,122.943548 169.331897,121.008065 169.99569,119.193548 C170.659483,117.379032 171.594828,115.796372 172.801724,114.445565 C174.008622,113.094756 175.477012,112.016128 177.206897,111.209677 C178.936781,110.403227 180.867815,110 183,110 C185.132185,110 187.063219,110.403227 188.793103,111.209677 C190.52299,112.016131 191.991379,113.094759 193.198276,114.445565 C194.405172,115.796372 195.340517,117.379032 196.00431,119.193548 C196.668103,121.008065 197,122.943548 197,125 C197,127.056452 196.668103,128.991935 196.00431,130.806452 C195.340517,132.620968 194.405172,134.203629 193.198276,135.554435 C191.991379,136.905243 190.52299,137.983871 188.793103,138.790323 C187.063219,139.596775 185.132185,140 183,140 Z" transform="translate(-46 -104)"/>
</svg>
