<svg height='300px' width='300px'  fill="#000000" xmlns="http://www.w3.org/2000/svg" xmlns:xlink="http://www.w3.org/1999/xlink" version="1.1" x="0px" y="0px" viewBox="0 0 128 128" style="enable-background:new 0 0 128 128;" xml:space="preserve"><path d="M91.7,84.6C98.8,76,103,65,103,53c0-27.6-22.4-50-50-50S3,25.4,3,53s22.4,50,50,50c12,0,23-4.2,31.6-11.3l25.3,25.3l7.1-7.1  L91.7,84.6z M53,93c-22.1,0-40-17.9-40-40s17.9-40,40-40s40,17.9,40,40S75.1,93,53,93z"></path><path d="M29.8,33.9l7.7,6.4C41.4,35.7,47,33,53,33V23C43.7,23,35.3,27.3,29.8,33.9z"></path><path d="M29.8,33.9C35.3,27.3,43.7,23,53,23"></path><path d="M33.8,47.3l-9.6-2.9C23.4,47.1,23,50,23,53h10C33,51,33.3,49.1,33.8,47.3z"></path><path d="M23,53c0-3,0.4-5.9,1.2-8.6"></path></svg>