<svg height='300px' width='300px'  fill="#000000" xmlns:dc="http://purl.org/dc/elements/1.1/" xmlns:cc="http://creativecommons.org/ns#" xmlns:rdf="http://www.w3.org/1999/02/22-rdf-syntax-ns#" xmlns:svg="http://www.w3.org/2000/svg" xmlns="http://www.w3.org/2000/svg" xmlns:sodipodi="http://sodipodi.sourceforge.net/DTD/sodipodi-0.dtd" xmlns:inkscape="http://www.inkscape.org/namespaces/inkscape" viewBox="0 0 135.46666 135.46667" version="1.1" x="0px" y="0px"><g transform="translate(0,-161.53332)"><path style="opacity:1;fill:#000000;fill-opacity:1;stroke:none;stroke-width:16.33276367;stroke-linecap:round;stroke-linejoin:round;stroke-miterlimit:4;stroke-dasharray:none;stroke-dashoffset:0;stroke-opacity:1" d="M 208.0293 69.324219 C 172.9898 69.325211 137.95058 82.668536 111.26367 109.35547 C 57.887872 162.73117 57.893269 249.51286 111.26367 302.88867 C 161.04517 352.67015 239.88478 356.01921 293.58008 312.94141 L 323.9668 343.32422 C 320.90979 352.15191 322.41376 362.13789 329.31836 369.04297 A 8.1671996 8.1671996 0 0 0 329.31836 369.05469 L 396.08008 435.81641 C 406.0583 445.79462 422.48023 444.49645 432.5332 434.44336 C 442.58561 424.39046 443.88375 407.9781 433.90625 398 L 367.13867 331.22852 C 362.46105 326.5518 356.3681 324.34961 350.17969 324.36719 C 349.76708 324.36719 349.35248 324.37967 348.93945 324.40234 C 346.40377 324.53047 343.86657 325.0307 341.41797 325.87891 L 311.37109 295.83789 C 358.06859 242.12476 355.88477 160.43956 304.80078 109.35547 C 278.11387 82.668536 243.0728 69.32521 208.0332 69.324219 L 208.03125 69.324219 L 208.0293 69.324219 z M 141.54688 121.40039 A 12.340548 12.340548 0 0 1 150.46094 142.60742 C 115.27936 177.789 115.27936 234.4649 150.46094 269.64648 A 12.340548 12.340548 0 1 1 133.00977 287.0957 C 88.397284 242.48322 88.397284 169.76874 133.00977 125.15625 A 12.340548 12.340548 0 0 1 141.54688 121.40039 z " transform="matrix(0.26458333,0,0,0.26458333,0,161.53332)"></path></g></svg>