<svg height='300px' width='300px'  fill="#000000" xmlns="http://www.w3.org/2000/svg" viewBox="0 0 64 64" x="0px" y="0px"><title>repeat-event-calendar</title><g data-name="Outline Icon"><path d="M57.414,7H52V6a4,4,0,0,0-4-4H47a4,4,0,0,0-4,4V7.5H27V6a4,4,0,0,0-4-4H22a4,4,0,0,0-4,4V7H12.586A4.6,4.6,0,0,0,8,11.6V29.77a1,1,0,0,0,2,0V21H47a1,1,0,0,0,0-2H10V11.6A2.6,2.6,0,0,1,12.586,9H18v2a4,4,0,0,0,4,4h1a4,4,0,0,0,4-4V9.5H43V11a4,4,0,0,0,4,4h1a4,4,0,0,0,4-4V9h5.414A2.6,2.6,0,0,1,60,11.6V19H54a1,1,0,0,0,0,2h6V49.4A2.6,2.6,0,0,1,57.414,52H35a1,1,0,0,0,0,2H57.414A4.6,4.6,0,0,0,62,49.4V11.6A4.6,4.6,0,0,0,57.414,7ZM25,11a2,2,0,0,1-2,2H22a2,2,0,0,1-2-2V6a2,2,0,0,1,2-2h1a2,2,0,0,1,2,2Zm25,0a2,2,0,0,1-2,2H47a2,2,0,0,1-2-2V6a2,2,0,0,1,2-2h1a2,2,0,0,1,2,2Z"></path><path d="M17,60a13,13,0,1,1,8.709-22.631L23,40.076h6.871V33.2l-2.752,2.751A14.983,14.983,0,1,0,32,47H30A13.015,13.015,0,0,1,17,60Z"></path></g></svg>