<svg height='300px' width='300px'  fill="#000000" xmlns="http://www.w3.org/2000/svg" viewBox="0 0 64 64" x="0px" y="0px"><g><path d="M22.277,38.5l3.9,2.25a1,1,0,0,1,.286.249l4.852,6.182a4.992,4.992,0,0,0,2.233,1.606,1,1,0,0,1,.323.192l8,7.093a.986.986,0,0,1,.2.248l2,3.465,15.588-9-2-3.465a.977.977,0,0,1-.113-.3l-1.341-6.552a1,1,0,0,1,.16-.775,3.517,3.517,0,0,0,.268-3.286l-2.561-8.626a1.934,1.934,0,0,0-1.119-1.231,1.657,1.657,0,0,0-1.445.073l-.019.01-1.731,1a1.041,1.041,0,0,0-.5.583.98.98,0,0,0,.137.783,1,1,0,0,1-1.733,1l-1-1.732a2,2,0,0,0-2.732-.732l-.866.5a1,1,0,0,0-.368,1.363l0,0a1,1,0,0,1-1.732,1h0a2,2,0,0,0-2.732-.732l-.866.5A1,1,0,0,0,37,31.537a1,1,0,0,1-1.732,1l-9-15.589a2,2,0,0,0-3.664.483,1.982,1.982,0,0,0,.2,1.517l10,17.321a1,1,0,0,1-.367,1.366l-1.33.768a1,1,0,0,1-1,0l-5.83-3.366a1.987,1.987,0,0,0-1-.269,2.02,2.02,0,0,0-.52.069,2,2,0,0,0-.483,3.664Z"></path><path d="M17,27.754a65.365,65.365,0,0,0,5.737-4.921l-1.666-2.886a4,4,0,0,1,6.929-4l.193.334A10.544,10.544,0,0,0,30,11,6.993,6.993,0,0,0,17.749,6.383a1.033,1.033,0,0,1-1.5,0A6.993,6.993,0,0,0,4,11C4,17.509,14.4,25.789,17,27.754ZM6.929,6.929a5.961,5.961,0,0,1,4.243-1.757,1,1,0,0,1,0,2A4,4,0,0,0,8.343,14a1,1,0,1,1-1.414,1.414A6.007,6.007,0,0,1,6.929,6.929Z"></path></g></svg>