<svg height='300px' width='300px'  fill="#000000" xmlns="http://www.w3.org/2000/svg" viewBox="0 0 64 64" x="0px" y="0px"><title>select, touch, click</title><g><path d="M46.4084,33.814v9.1635a27.5324,27.5324,0,0,1-.6943,6.1441l-.6229,2.7212H25.7173l-4.6082-6.4146a5.1732,5.1732,0,0,1-.977-3.0346V36.6714a5.1962,5.1962,0,0,1,1.3012-3.4409l1.0792-1.2231V37.936a1.5,1.5,0,0,0,3,0V14.1118a1.8557,1.8557,0,0,1,3.7114,0c0,.043.0019.0864.0053.1294L30.2776,26.36c.0027.0318.0127.0608.0174.0918a1.4843,1.4843,0,0,0,.029.1538c.0124.048.0286.0936.0454.1394s.033.0884.0535.131a1.4187,1.4187,0,0,0,.0728.1312c.0244.04.0492.0793.0773.117s.0582.0723.09.1067a1.5079,1.5079,0,0,0,.1086.11c.03.0273.0623.052.0949.0768a1.4983,1.4983,0,0,0,.141.0971c.0327.0194.0667.036.1008.053a1.4993,1.4993,0,0,0,.1619.07c.0387.0139.0786.0239.1186.0346.0374.01.0722.0252.111.0324l12.165,2.2509A4.0714,4.0714,0,0,1,46.4084,33.814ZM45.3163,54.8432l-20.4288,0a1,1,0,0,0-1,1v3.1938a1,1,0,0,0,1,1H45.4084a1,1,0,0,0,1-1s-.0569-1.9874-.0927-3.2258A.9969.9969,0,0,0,45.3163,54.8432ZM22.14,20.6372a1.5,1.5,0,0,0,.1528-2.1157,6.9882,6.9882,0,1,1,10.6636-.1065,1.5,1.5,0,0,0,2.3066,1.918,9.9878,9.9878,0,1,0-15.2387.1514,1.5,1.5,0,0,0,2.1157.1528Z"></path></g></svg>